<svg width="32" height="32" viewBox="0 0 32 32" fill="none" xmlns="http://www.w3.org/2000/svg">
<path d="M21.6923 7.2162C21.2712 6.79449 20.7004 6.55762 20.1053 6.55762C19.5101 6.55762 18.9393 6.79449 18.5182 7.2162L15.9295 9.80593C15.8188 9.30572 15.5413 8.85832 15.1427 8.53761C14.7442 8.21689 14.2485 8.04204 13.7375 8.04191H9.24585C8.65021 8.04191 8.07897 8.27917 7.65779 8.70149C7.23662 9.12381 7 9.6966 7 10.2939V22.3042C7 23.0698 7.38179 23.7454 7.96422 24.1523C8.32805 24.4075 8.77272 24.5576 9.25034 24.5576H21.2282C21.8238 24.5576 22.3951 24.3204 22.8163 23.898C23.2374 23.4757 23.4741 22.9029 23.4741 22.3057V17.8018C23.4739 17.3027 23.3084 16.8177 23.0035 16.4231C22.6986 16.0285 22.2717 15.7467 21.7897 15.6219L24.3424 13.0562C24.7635 12.6339 25 12.0612 25 11.4641C25 10.867 24.7635 10.2943 24.3424 9.87199L21.6923 7.2162ZM15.9834 13.1763L18.349 15.5484H15.9834V13.1763ZM14.4862 15.5484H8.49723V10.2939C8.49723 10.0948 8.5761 9.90384 8.7165 9.76306C8.85689 9.62229 9.0473 9.5432 9.24585 9.5432H13.7375C13.9361 9.5432 14.1265 9.62229 14.2669 9.76306C14.4073 9.90384 14.4862 10.0948 14.4862 10.2939V15.5484ZM8.81764 22.9197C8.71958 22.8501 8.63968 22.7578 8.58469 22.6506C8.52971 22.5435 8.50125 22.4247 8.50172 22.3042V17.0497H14.4862V23.0548H9.24585C9.09269 23.0548 8.94323 23.0076 8.81764 22.9197ZM15.9834 23.0548V17.0497H21.2282C21.4267 17.0497 21.6172 17.1287 21.7576 17.2695C21.8979 17.4103 21.9768 17.6012 21.9768 17.8003V22.3042C21.9768 22.5033 21.8979 22.6942 21.7576 22.835C21.6172 22.9757 21.4267 23.0548 21.2282 23.0548H15.9834Z" fill="#71798A"/>
</svg>
